<?xml version="1.0" standalone="no"?>
<!DOCTYPE svg PUBLIC "-//W3C//DTD SVG 20010904//EN"
 "http://www.w3.org/TR/2001/REC-SVG-20010904/DTD/svg10.dtd">
<svg version="1.0" xmlns="http://www.w3.org/2000/svg"
 width="512.000000pt" height="512.000000pt" viewBox="0 0 512.000000 512.000000"
 preserveAspectRatio="xMidYMid meet">
<metadata>
Created by potrace 1.16, written by Peter Selinger 2001-2019
</metadata>
<g transform="translate(0.000000,512.000000) scale(0.100000,-0.100000)"
fill="orange" stroke="red">
<path d="M2864 4590 c-92 -37 -160 -111 -179 -197 -3 -18 -18 -41 -32 -51 -34
-24 -25 -47 20 -56 32 -6 35 -9 46 -63 10 -49 9 -59 -6 -75 -15 -17 -15 -22 1
-76 33 -105 76 -151 143 -153 25 0 22 -3 -22 -23 -58 -27 -80 -49 -127 -132
-19 -33 -47 -72 -62 -87 -14 -14 -26 -31 -26 -36 0 -6 -18 -22 -39 -35 -22
-14 -42 -33 -45 -43 -3 -10 -19 -24 -36 -30 -17 -6 -34 -23 -40 -37 -6 -16
-20 -28 -37 -32 -30 -7 -128 -58 -155 -81 -11 -10 -18 -11 -23 -3 -4 6 -25 25
-48 41 -30 22 -41 37 -44 61 -4 37 -17 54 -54 74 -57 29 -141 6 -170 -47 -17
-32 -15 -89 6 -128 13 -26 19 -31 26 -20 6 9 8 -19 5 -76 -3 -49 -5 -91 -5
-92 -1 -2 -60 -32 -132 -68 -143 -71 -153 -72 -217 -28 -34 23 -55 28 -99 24
-36 -3 -86 27 -78 47 24 56 17 103 -17 119 -51 23 -98 -29 -98 -107 0 -45 25
-67 42 -36 9 15 11 15 26 -3 9 -11 37 -26 62 -35 l45 -15 -48 -1 c-27 0 -57 5
-68 11 -15 7 -24 7 -34 -1 -7 -6 -24 -8 -38 -5 -33 9 -67 -2 -67 -21 0 -12 17
-15 95 -13 52 1 98 -1 102 -4 3 -4 -1 -7 -11 -7 -9 0 -23 -13 -30 -30 l-12
-30 -100 -3 c-142 -5 -187 -34 -219 -140 -20 -66 -19 -112 2 -178 18 -56 88
-139 118 -139 24 0 17 -13 -18 -35 -65 -41 -76 -120 -18 -131 l28 -6 -19 -38
c-16 -31 -17 -43 -8 -60 14 -27 21 -20 44 43 13 34 23 47 37 47 10 0 19 -5 19
-11 0 -5 -3 -8 -7 -6 -5 3 -9 -9 -10 -27 -1 -17 -6 -44 -12 -60 -10 -26 -15
-28 -44 -22 -199 43 -365 15 -531 -88 -77 -48 -260 -229 -253 -250 2 -6 24
-15 49 -19 l45 -9 -38 -77 c-99 -202 -115 -454 -44 -678 59 -186 206 -354 363
-413 l45 -17 -84 -12 c-382 -54 -192 -52 438 5 322 29 417 46 208 38 l-140 -6
64 42 c80 52 153 126 206 210 41 65 95 177 95 199 0 7 21 11 54 11 l54 0 11
50 c6 28 11 64 11 80 0 44 15 44 43 1 60 -91 159 -106 583 -93 197 7 246 11
266 24 19 12 69 19 198 27 95 6 174 10 175 9 1 -2 16 -30 34 -64 40 -75 80
-125 142 -174 l47 -37 -115 -12 c-63 -6 -228 -20 -367 -31 -530 -42 -647 -51
-841 -70 -110 -11 -227 -24 -260 -30 l-60 -9 70 4 c39 3 246 18 460 34 215 17
504 37 644 46 140 9 309 23 375 31 139 16 152 17 142 7 -3 -4 -109 -19 -234
-34 l-227 -27 106 -1 c105 -1 646 30 874 50 152 13 186 29 291 133 66 67 89
98 127 176 47 96 71 175 80 262 4 40 2 48 -12 48 -20 0 -418 -52 -613 -80
-264 -38 -342 -52 -485 -86 -139 -34 -216 -44 -182 -24 21 12 318 73 536 109
228 38 347 55 613 86 254 30 255 30 280 55 44 44 13 106 -69 139 -47 20 -38
33 17 24 26 -4 72 -8 102 -8 49 0 55 2 58 22 3 20 -22 82 -38 93 -4 3 -35 59
-69 126 -33 67 -92 168 -130 226 -68 102 -257 320 -306 352 -19 12 -51 16
-148 16 -138 0 -148 -4 -242 -89 -23 -20 -62 -50 -88 -68 -26 -18 -68 -62 -94
-99 -27 -37 -55 -75 -63 -86 -14 -18 -86 -42 -218 -72 l-62 -14 -55 44 c-30
25 -55 49 -55 53 0 4 24 13 53 21 116 29 277 84 367 124 52 24 114 51 137 61
27 11 66 44 108 91 l66 74 257 -1 c253 -2 258 -1 302 22 33 18 50 36 65 67 19
41 21 42 67 42 39 0 48 -3 48 -18 0 -47 -68 -95 -153 -107 -26 -4 -54 -14 -62
-21 -10 -10 -41 -14 -110 -14 l-96 0 88 -98 c48 -53 105 -120 126 -149 61 -84
192 -307 227 -387 l33 -74 66 -4 c36 -2 70 -1 74 3 5 3 -17 68 -48 144 -40 98
-53 141 -46 148 18 18 12 64 -11 92 -26 30 -78 44 -158 45 l-56 0 -27 55 c-15
31 -27 57 -27 60 0 2 32 4 71 4 53 0 76 4 90 17 63 57 8 133 -98 135 -26 1
-59 4 -73 8 -19 6 -8 9 42 14 112 10 195 69 205 143 4 32 1 43 -17 59 -19 17
-35 20 -106 19 -52 -1 -89 -6 -99 -14 -21 -17 -29 -7 -15 20 6 12 9 34 5 49
-6 28 -5 28 51 34 61 6 94 25 128 71 20 26 21 40 19 219 -3 277 -5 289 -59
344 -37 39 -45 56 -55 107 -32 182 -114 259 -292 272 -68 6 -88 10 -92 24 -20
63 -116 95 -265 88 -99 -5 -147 -25 -163 -69 -7 -18 -17 -27 -25 -24 -8 3 -24
2 -38 -1 -24 -6 -24 -6 -5 -33 29 -41 58 -102 81 -171 26 -78 60 -328 58 -435
l-1 -80 -13 115 c-8 63 -23 175 -34 248 -31 210 -90 325 -210 413 -33 24 -70
59 -80 77 -17 29 -18 39 -9 84 6 28 9 88 7 132 -6 125 -58 205 -168 261 -53
28 -163 30 -226 5z m224 -46 c83 -41 132 -123 132 -226 0 -61 -15 -90 -77
-149 -59 -57 -214 -170 -266 -195 -34 -16 -41 -17 -65 -4 -15 8 -38 37 -51 63
-26 53 -21 67 26 67 12 0 60 14 106 30 103 36 107 36 107 5 0 -17 -14 -36 -46
-62 -111 -90 -119 -108 -14 -27 79 59 86 70 73 103 -9 24 -6 32 19 59 32 36
36 77 13 121 -23 46 -60 55 -202 48 l-125 -6 7 27 c9 39 49 96 84 122 17 12
31 19 31 15 0 -3 11 2 25 11 61 40 138 39 223 -2z m-99 -185 c37 -13 51 -35
51 -79 0 -71 -70 -121 -217 -154 -85 -19 -83 -19 -83 -6 0 6 12 10 26 10 35 0
141 28 179 47 98 50 114 149 27 166 -15 3 -59 1 -97 -4 -149 -19 -201 -22
-189 -10 6 7 56 18 110 25 127 18 154 18 193 5z m-229 -91 c0 -7 2 -31 5 -53
l5 -40 -14 30 c-17 35 -20 75 -6 75 6 0 10 -6 10 -12z m451 -76 c-15 -29 -91
-93 -142 -121 -53 -29 -43 -18 33 38 31 22 70 57 85 76 29 36 42 40 24 7z m59
-151 l40 -29 -49 0 c-65 -1 -123 -31 -162 -85 -43 -60 -58 -100 -65 -178 -6
-59 -10 -69 -26 -69 -59 0 -82 -56 -25 -63 28 -4 30 -5 10 -11 -14 -5 -20 -13
-16 -23 4 -11 2 -14 -8 -9 -8 3 -22 9 -32 12 -15 5 -16 15 -12 58 11 100 16
113 53 156 20 24 57 73 82 109 35 51 149 161 167 161 2 0 21 -13 43 -29z m610
-26 c57 -30 36 -37 -90 -34 -108 4 -122 6 -142 27 l-22 22 112 0 c82 0 121 -4
142 -15z m-529 -51 c86 -43 171 -224 153 -327 -7 -43 -51 -153 -58 -146 -3 2
2 31 10 64 17 74 17 150 0 190 -12 28 -13 25 -18 -55 -3 -47 -13 -107 -23
-135 -25 -72 -65 -159 -70 -154 -2 3 6 40 19 84 23 81 38 155 31 155 -10 0
-67 -200 -76 -268 -14 -98 -33 -133 -111 -208 -97 -94 -187 -133 -363 -159
-58 -8 -116 -20 -130 -25 -15 -6 -28 -10 -29 -10 -2 0 -9 21 -17 47 -7 26 -28
64 -46 84 l-34 37 53 17 c83 27 166 73 173 94 11 36 47 72 96 97 28 14 52 33
55 42 19 58 28 72 56 81 103 36 228 -31 228 -121 0 -93 -104 -205 -251 -272
-35 -16 -46 -25 -33 -25 75 -2 242 121 292 215 24 45 31 106 17 140 -29 70
-134 116 -225 98 -27 -6 -50 -10 -50 -9 0 2 16 37 35 80 20 43 41 101 47 129
12 58 36 89 90 117 57 29 113 25 149 -10 31 -32 38 -29 14 6 -29 42 -127 48
-173 11 -23 -19 -25 1 -3 39 l21 38 -41 -45 c-23 -25 -50 -63 -60 -85 -9 -22
-18 -32 -18 -22 -1 28 35 124 59 154 58 74 151 98 231 57z m-356 -73 c-20 -34
-42 -64 -50 -68 -25 -15 -37 -89 -41 -252 -1 -90 -5 -165 -8 -168 -12 -12 -17
153 -6 242 14 122 27 174 44 181 8 3 26 29 41 57 33 61 46 79 53 73 2 -3 -12
-32 -33 -65z m1065 28 c143 -18 203 -72 234 -210 9 -37 16 -70 16 -73 0 -4
-33 -6 -72 -6 -40 -1 -118 -5 -173 -10 -94 -8 -101 -10 -127 -39 l-28 -31 0
-230 c0 -251 5 -279 55 -318 25 -20 39 -22 159 -21 202 1 244 9 278 49 15 19
28 28 28 21 0 -7 -15 -28 -32 -45 -39 -39 -78 -45 -285 -47 -121 -1 -134 0
-162 21 -56 39 -59 52 -62 326 -4 238 -3 253 15 273 19 21 20 24 2 89 -22 84
-54 141 -106 185 -47 40 -96 56 -197 66 -145 14 -81 20 148 15 129 -3 268 -10
309 -15z m-1180 -56 c0 -5 -7 -80 -16 -167 -13 -128 -14 -176 -5 -244 7 -54 7
-90 1 -96 -5 -5 -11 0 -14 15 -45 202 -45 406 0 474 16 24 34 33 34 18z m806
-34 c39 -19 104 -95 104 -122 0 -6 -12 8 -27 31 -37 54 -74 82 -131 97 -39 11
-42 13 -18 14 16 1 49 -8 72 -20z m-892 -59 c-7 -36 -14 -95 -14 -132 0 -73
-19 -108 -59 -108 -10 0 -33 -6 -51 -14 -31 -13 -31 -13 -9 -19 13 -4 41 -7
61 -7 31 0 36 -3 31 -17 -10 -27 -24 -33 -78 -32 -52 0 -156 36 -162 56 -2 6
5 14 16 18 11 3 51 37 90 74 l70 69 6 -29 c4 -16 11 -29 16 -29 6 0 7 9 2 23
-10 30 -8 76 5 89 7 7 12 -9 17 -51 11 -92 27 -87 19 6 -7 79 2 115 39 161 16
20 16 12 1 -58z m226 -125 c-7 -8 -24 -15 -39 -15 -25 1 -25 1 -7 15 11 8 29
15 39 15 16 0 17 -3 7 -15z m755 -55 c7 -12 -32 -12 -60 0 -16 7 -13 9 17 9
20 1 40 -3 43 -9z m588 -29 c33 -30 60 -91 51 -116 -4 -8 -39 -14 -112 -18
-59 -4 -127 -9 -151 -12 -43 -6 -43 -6 -37 20 5 20 3 26 -6 23 -7 -3 -16 -26
-20 -52 -9 -63 -18 -71 -18 -15 0 70 1 71 151 74 74 2 145 7 158 12 l23 9 -26
30 c-24 26 -26 27 -21 7 6 -23 6 -23 -110 -23 -84 0 -122 4 -138 14 -12 8 -41
18 -63 22 -68 10 -74 -6 -76 -221 -1 -142 -3 -164 -8 -105 -4 41 -8 130 -9
196 -1 160 3 167 121 175 45 3 122 6 170 7 83 2 89 1 121 -27z m-1427 3 c-5
-13 -2 -15 15 -11 16 4 19 2 14 -11 -4 -9 -11 -43 -17 -74 -6 -32 -14 -58 -19
-58 -5 0 -9 31 -9 69 0 66 6 101 17 101 3 0 2 -7 -1 -16z m609 -114 c9 -52 18
-157 22 -232 5 -120 4 -143 -12 -177 -15 -34 -16 -47 -6 -85 18 -72 15 -103
-11 -110 -49 -13 -105 -4 -216 33 -157 52 -226 65 -323 58 -61 -4 -84 -10 -96
-24 -14 -17 -14 -17 -9 0 3 10 6 27 6 38 0 10 7 19 15 19 8 0 15 -7 15 -16 0
-10 6 -14 18 -10 9 2 54 12 98 21 88 19 75 20 299 -29 137 -30 171 -13 38 19
-40 9 -73 20 -73 24 0 4 22 18 49 31 47 22 137 99 99 85 -16 -6 -18 0 -18 47
0 30 -7 81 -16 113 -9 33 -18 69 -21 81 -3 13 16 54 51 114 31 52 56 99 56
104 0 6 3 7 10 0 5 -5 16 -52 25 -104z m-1461 68 c20 -28 7 -51 -47 -85 -30
-19 -37 -20 -37 -8 0 18 -12 19 -28 3 -16 -16 -15 -6 4 42 15 37 51 69 81 70
6 0 19 -10 27 -22z m1972 -30 c-13 -18 -16 -57 -16 -215 0 -241 -12 -226 180
-217 119 7 135 10 160 31 16 13 31 34 33 46 4 20 4 20 6 -3 2 -35 -23 -67 -62
-79 -17 -5 -94 -11 -169 -13 -190 -4 -180 -17 -186 231 -4 165 -2 194 12 216
9 14 26 25 37 25 19 0 19 -1 5 -22z m-266 2 c18 -6 7 -8 -42 -9 -37 -1 -70 4
-73 9 -7 12 78 12 115 0z m-1258 -45 c32 -27 115 -55 164 -55 48 0 49 -15 4
-33 -24 -9 -40 -22 -40 -32 0 -22 -24 -14 -116 36 -88 48 -144 55 -71 9 78
-49 124 -70 157 -70 16 0 30 -4 30 -8 0 -14 -32 -40 -64 -52 -24 -9 -33 -7
-60 13 -38 29 -116 70 -122 64 -3 -2 9 -10 26 -17 32 -13 60 -45 60 -68 0 -17
-75 -50 -125 -54 l-40 -3 -39 79 c-46 94 -52 84 91 153 51 24 95 48 98 54 9
13 14 12 47 -16z m1190 -205 c3 -76 2 -115 -2 -90 -4 25 -10 106 -13 180 -4
80 -3 117 2 90 5 -25 11 -106 13 -180z m101 113 c9 -126 9 -348 1 -340 -4 3
-10 64 -15 134 -4 70 -11 167 -15 216 -6 73 -4 87 8 87 12 0 16 -21 21 -97z
m-1636 33 c35 -31 31 -36 -97 -110 l-95 -54 -3 35 c-6 66 3 80 55 86 37 4 53
12 73 35 14 17 28 31 32 31 4 1 20 -10 35 -23z m60 -82 c4 -10 -1 -20 -11 -26
-9 -5 -28 -20 -44 -33 l-27 -24 33 9 c19 5 40 14 47 20 11 9 18 3 35 -29 25
-51 16 -57 -68 -46 -72 10 -74 10 -149 0 -75 -9 -84 5 -20 34 23 10 74 39 112
64 79 52 83 53 92 31z m563 -39 c0 -7 -91 -51 -120 -59 -14 -3 7 9 45 28 82
40 75 37 75 31z m608 -103 c11 -44 16 -85 13 -91 -4 -6 -28 -20 -55 -32 -58
-25 -206 -39 -206 -19 0 7 29 42 64 79 36 36 83 90 107 119 49 63 50 62 77
-56z m-1309 -19 c-13 -16 -25 -30 -26 -32 -2 -2 -3 1 -3 7 0 13 35 52 47 52 3
0 -4 -12 -18 -27z m-63 -9 c-3 -9 -6 -22 -6 -30 0 -8 -7 -14 -15 -14 -15 0
-21 40 -8 53 13 14 35 7 29 -9z m271 2 c4 -3 -34 -6 -84 -6 -87 0 -90 -1 -102
-26 -15 -33 -25 -26 -12 9 5 14 18 27 27 29 29 5 164 1 171 -6z m-359 -8 c-2
-6 -20 -17 -39 -24 -20 -6 -72 -35 -117 -63 -83 -52 -126 -62 -176 -42 -26 10
-6 23 43 28 20 2 81 26 136 52 132 64 161 74 153 49z m612 -34 c38 -32 60 -74
60 -111 -1 -25 -2 -24 -15 12 -8 23 -33 58 -60 83 -51 45 -38 60 15 16z m-63
-19 c53 -36 78 -66 70 -88 -2 -7 -11 2 -20 20 -15 29 -79 81 -117 96 -13 5
-13 6 0 6 8 1 39 -15 67 -34z m-961 -11 c-9 -8 -19 -26 -22 -40 -8 -29 -24
-32 -24 -3 0 32 19 59 41 59 19 0 19 -1 5 -16z m750 -16 c-11 -15 -16 -18 -16
-7 0 16 21 42 28 34 2 -2 -3 -14 -12 -27z m160 6 c90 -60 123 -114 69 -114
-16 0 -25 -6 -25 -16 0 -8 -4 -12 -10 -9 -19 12 -10 35 15 41 31 8 32 28 3 48
-20 15 -24 14 -46 -7 -14 -12 -31 -35 -38 -52 -13 -29 -13 -29 -13 -5 0 28 13
48 47 72 l24 16 -22 12 c-30 16 -46 7 -69 -37 -11 -21 -20 -30 -21 -21 0 9 11
30 25 46 14 17 25 33 25 36 0 16 -35 3 -61 -23 -16 -16 -29 -25 -29 -20 0 16
51 59 70 59 9 0 35 -12 56 -26z m-868 -22 c-25 -31 -36 -26 -18 7 6 12 18 21
26 21 12 0 10 -6 -8 -28z m631 -8 c3 -2 0 -9 -6 -15 -8 -8 -37 -9 -100 -2
-107 12 -151 3 -221 -43 -88 -58 -209 -96 -241 -75 -9 6 2 11 35 16 62 8 125
36 174 75 71 56 92 61 230 55 68 -4 127 -8 129 -11z m65 -64 c10 -30 20 -38
91 -67 47 -20 95 -33 115 -32 24 2 51 -8 88 -31 29 -18 51 -34 48 -37 -2 -2
-21 0 -43 6 -21 6 -55 11 -75 11 -24 0 -71 17 -135 49 -54 27 -118 54 -143 61
-25 6 -59 17 -76 25 -76 35 -177 31 -195 -8 -7 -16 -33 -30 -85 -48 -40 -14
-74 -22 -74 -18 0 6 50 38 153 97 49 27 105 28 194 5 l65 -18 17 22 c22 31 41
25 55 -17z m-798 20 c16 -6 35 -19 42 -30 16 -26 11 -25 -51 10 -52 30 -47 39
9 20z m1380 -29 c-3 -5 -27 -12 -53 -16 -27 -4 -80 -18 -120 -31 -74 -25 -145
-33 -110 -13 28 16 129 51 172 59 58 11 117 11 111 1z m-1539 -33 c17 -18 35
-42 40 -53 16 -31 22 -96 14 -145 l-7 -45 -6 65 c-6 75 -43 157 -84 189 -23
18 -24 21 -7 21 10 0 33 -15 50 -32z m116 2 c42 -16 84 -30 94 -30 34 0 186
-49 205 -67 22 -20 24 -71 2 -80 -8 -3 -42 9 -75 26 -62 33 -65 32 -49 -2 6
-12 -12 3 -41 33 -28 30 -46 45 -40 33 20 -39 13 -105 -15 -148 -69 -104 -158
-166 -236 -164 l-43 1 49 13 c60 17 91 45 110 103 35 100 12 227 -50 282 -34
29 -34 30 -10 30 13 0 58 -13 99 -30z m287 20 c0 -5 -22 -10 -49 -10 -28 0
-53 5 -56 10 -4 6 15 10 49 10 31 0 56 -4 56 -10z m400 -20 c32 -17 18 -23
-27 -11 -21 6 -55 11 -76 11 -26 0 -36 4 -31 11 8 14 102 6 134 -11z m-876 -1
c34 -16 73 -77 86 -134 18 -80 -20 -188 -75 -213 -38 -17 -53 -15 -26 4 63 44
81 181 36 271 -55 109 -136 88 -165 -41 -19 -84 21 -205 73 -222 10 -3 16 -8
13 -11 -11 -12 -57 29 -76 68 -44 85 -35 200 20 259 30 33 70 39 114 19z m-26
-42 c55 -59 70 -178 29 -238 -25 -38 -50 -47 -73 -28 -69 57 -73 240 -7 278
25 14 27 14 51 -12z m1040 -7 c77 -30 169 -77 230 -118 66 -45 53 -55 -16 -13
-63 39 -205 105 -259 122 -43 12 -58 29 -25 29 9 0 41 -9 70 -20z m569 4 c-3
-3 -12 -4 -19 -1 -8 3 -5 6 6 6 11 1 17 -2 13 -5z m319 -23 c34 -16 65 -34 68
-40 11 -17 1 -14 -64 19 -33 17 -67 30 -77 29 -10 0 6 -11 34 -25 40 -18 51
-27 46 -40 -5 -13 -15 -15 -57 -10 l-50 6 50 -34 c45 -31 84 -66 71 -66 -2 0
-25 9 -49 20 -62 27 -144 43 -176 35 l-27 -7 35 -13 35 -12 -40 -12 c-41 -11
-78 -31 -60 -31 6 0 32 7 59 15 27 8 51 13 53 11 12 -12 -210 -61 -227 -51 -6
4 -4 18 6 36 8 17 14 32 12 34 -11 11 -169 -111 -206 -159 -24 -31 -47 -56
-53 -56 -20 0 -8 -20 14 -21 21 -2 21 -2 1 -6 -20 -4 -21 -12 -28 -144 -4 -76
-11 -176 -17 -222 -5 -45 -12 -107 -15 -137 l-6 -55 58 -30 c33 -16 63 -29 67
-30 11 0 73 153 93 230 16 62 22 212 10 255 -7 23 -6 23 13 -5 26 -38 29 -148
5 -237 -16 -63 -93 -278 -103 -290 -4 -4 -40 13 -81 37 -41 25 -81 45 -87 45
-13 0 -12 25 6 222 5 53 7 166 4 250 -5 144 -4 156 17 201 33 70 91 114 257
197 273 135 302 142 409 91z m-1046 5 c96 -17 236 -70 334 -126 42 -24 74 -45
72 -48 -2 -2 -42 13 -87 33 -170 75 -460 130 -556 106 -51 -13 -66 -8 -37 14
45 34 154 42 274 21z m690 10 c0 -7 -123 -46 -144 -45 -12 0 11 11 49 24 70
23 95 29 95 21z m1410 -6 c0 -17 -41 -21 -174 -18 -93 2 -131 7 -134 16 -3 9
32 12 152 12 95 0 156 -4 156 -10z m240 -40 c11 -7 -2 -10 -45 -11 -87 -2
-108 -10 -121 -47 -5 -18 -16 -38 -23 -45 -11 -10 -13 -4 -8 33 8 63 32 80
116 80 36 0 73 -5 81 -10z m-1068 -114 c5 3 13 16 18 28 8 20 9 20 9 1 2 -45
-65 -112 -157 -159 -61 -31 -254 -88 -361 -107 l-73 -13 -35 42 c-19 23 -38
40 -43 37 -4 -3 -13 2 -20 11 -10 12 -11 17 -1 27 9 9 21 1 55 -38 l43 -49
109 23 c193 40 351 98 412 151 l24 20 -41 65 c-54 86 -52 94 5 17 25 -34 50
-59 56 -56z m-1327 83 c159 -19 435 -104 435 -134 0 -6 -14 -24 -31 -41 -43
-40 -58 -74 -65 -142 l-7 -59 -60 -7 c-119 -12 -355 -7 -394 9 -45 19 -49 19
-32 -1 35 -43 66 -49 247 -46 144 3 172 1 172 -11 0 -16 -133 -37 -240 -37
-56 0 -70 4 -124 39 -141 88 -171 96 -230 56 -51 -35 -55 -15 -18 82 17 43 42
111 57 151 54 146 94 165 290 141z m2156 -41 c-2 -29 -8 -56 -15 -60 -6 -4
-61 -8 -122 -8 l-111 0 -7 52 c-5 37 -4 53 6 59 7 5 67 9 133 9 l120 0 -4 -52z
m-425 17 c8 -10 14 -29 14 -42 0 -20 -5 -23 -40 -23 -31 0 -48 7 -77 33 -21
19 -47 39 -58 46 -16 10 -5 11 63 9 69 -3 86 -7 98 -23z m112 -43 c8 -24 -14
-11 -43 26 l-29 37 34 -26 c19 -14 36 -31 38 -37z m-260 2 l23 -16 -31 -56
c-17 -32 -42 -67 -56 -79 -22 -20 -182 -79 -191 -70 -2 2 20 34 49 70 38 47
65 71 96 83 41 16 88 65 75 78 -13 13 13 5 35 -10z m-2028 -112 c-30 -80 -50
-109 -50 -77 0 32 62 177 72 167 6 -6 -2 -39 -22 -90z m86 84 c5 -14 -50 -170
-69 -193 -5 -7 -18 -13 -29 -13 -15 0 -18 3 -11 13 6 6 27 56 47 110 36 93 51
113 62 83z m1751 -43 c-30 -56 -148 -152 -240 -193 -80 -37 -72 -20 13 28 57
31 110 72 160 122 41 42 76 75 78 74 2 -1 -3 -15 -11 -31z m-2080 -5 c-3 -8
-6 -5 -6 6 -1 11 2 17 5 13 3 -3 4 -12 1 -19z m2873 -102 c0 -50 -16 -53 -40
-6 l-20 40 30 0 c28 0 30 -3 30 -34z m-249 -5 c27 -33 25 -55 -3 -44 -30 10
-226 10 -302 0 -65 -10 -71 1 -22 37 33 25 102 35 220 32 79 -2 91 -5 107 -25z
m394 9 c27 -29 13 -50 -35 -50 -39 0 -40 1 -40 35 0 32 3 35 28 35 16 0 37 -9
47 -20z m-2909 -89 c-35 -36 -88 -49 -221 -53 l-100 -3 0 25 c0 44 39 56 143
43 73 -9 97 -9 128 2 22 8 48 14 58 15 17 0 16 -3 -8 -29z m108 15 c40 -17 57
-56 44 -104 -7 -28 -12 -32 -30 -26 -34 10 -111 59 -116 72 -3 11 49 72 63 72
3 0 21 -6 39 -14z m2122 -29 c-16 -12 -61 -50 -99 -85 -64 -58 -102 -79 -127
-70 -15 5 41 80 85 114 36 27 125 64 155 63 9 0 4 -9 -14 -22z m337 -9 c122
-57 254 -223 365 -459 81 -170 79 -162 39 -154 -77 16 -111 42 -183 141 -38
53 -89 115 -114 136 l-45 40 -65 -6 c-36 -4 -140 -18 -231 -32 -164 -25 -167
-26 -208 -7 -39 17 -189 140 -190 156 -1 4 16 7 38 7 74 0 100 12 178 81 43
38 105 83 138 100 55 28 67 30 140 27 61 -3 94 -10 138 -30z m-1273 -31 c0 -6
7 -19 17 -29 24 -27 -2 -22 -33 7 -15 14 -21 25 -14 25 9 0 8 5 -3 18 -26 29
-20 38 8 12 14 -13 25 -28 25 -33z m-855 -42 c44 -29 99 -70 123 -90 41 -35
42 -38 42 -96 0 -64 -39 -217 -70 -280 -29 -55 -66 -81 -113 -77 l-39 3 -79
210 c-97 256 -101 273 -81 315 21 43 80 82 112 75 14 -3 61 -30 105 -60z
m-534 -47 c-24 -69 -59 -148 -65 -148 -3 0 9 39 25 88 39 117 37 112 48 112 6
0 2 -24 -8 -52z m67 19 c2 -9 -16 -66 -39 -127 -30 -79 -45 -108 -53 -100 -8
8 -3 33 17 88 16 42 34 96 40 120 11 41 29 51 35 19z m77 2 c7 -10 -78 -242
-97 -266 -10 -13 -38 -7 -38 9 0 5 23 68 52 139 48 119 66 146 83 118z m-354
-26 c-12 -20 -14 -14 -5 12 4 9 9 14 11 11 3 -2 0 -13 -6 -23z m3313 -35 c9
-12 16 -26 16 -30 0 -16 -34 -38 -59 -38 -23 0 -30 5 -34 28 -3 15 -9 35 -12
45 -6 14 -1 17 33 17 31 0 45 -5 56 -22z m-2059 -70 c7 -7 3 -8 -10 -5 -11 4
-33 9 -50 13 -28 7 -44 20 -45 36 0 8 91 -30 105 -44z m529 10 c81 -55 86 -65
86 -152 l0 -81 -21 25 c-43 52 -158 233 -153 241 6 10 47 -5 88 -33z m-659 22
c3 -5 5 -10 3 -10 -2 0 -41 -7 -88 -15 -104 -18 -100 -18 -100 0 0 8 10 17 23
20 75 16 154 19 162 5z m1189 -100 c53 -49 99 -83 117 -87 42 -8 46 -23 6 -23
-41 0 -87 32 -177 124 -91 93 -52 83 54 -14z m-2317 44 c29 -8 73 -23 98 -34
l46 -20 -36 -71 c-29 -56 -40 -69 -53 -64 -32 12 -115 25 -161 25 -76 0 -181
-28 -269 -70 l-84 -40 -114 7 c-63 3 -114 9 -114 14 0 15 149 145 204 178 149
89 329 117 483 75z m424 -149 c16 -55 48 -154 70 -220 49 -150 49 -166 1 -50
-41 99 -76 154 -147 233 l-47 52 28 82 27 83 19 -40 c10 -22 32 -85 49 -140z
m-291 155 c0 -5 -2 -10 -4 -10 -3 0 -8 5 -11 10 -3 6 -1 10 4 10 6 0 11 -4 11
-10z m1000 0 c0 -5 -1 -10 -2 -10 -2 0 -41 -7 -87 -15 -47 -8 -87 -12 -90 -10
-11 12 17 24 74 33 83 13 105 14 105 2z m100 -10 c21 -7 19 -8 -17 -9 -23 -1
-45 4 -48 9 -7 12 29 12 65 0z m936 -17 c9 -16 48 -60 85 -98 l68 -71 -20 -29
c-11 -17 -33 -55 -49 -86 -28 -55 -29 -56 -82 -63 -49 -6 -55 -4 -78 22 -29
31 -143 278 -137 295 4 12 134 54 173 56 13 1 29 -10 40 -26z m-436 -66 c90
-100 200 -234 200 -241 0 -4 -26 -6 -57 -4 l-57 3 -89 138 c-72 112 -86 141
-77 153 7 7 15 14 19 14 3 0 31 -28 61 -63z m-592 48 c-10 -10 -198 -42 -198
-34 0 9 5 10 90 28 51 10 116 14 108 6z m107 -5 c8 -13 -45 -13 -65 0 -11 7
-6 10 22 10 20 0 40 -4 43 -10z m-755 -36 c0 -2 -9 0 -20 6 -11 6 -20 13 -20
16 0 2 9 0 20 -6 11 -6 20 -13 20 -16z m660 -2 c0 -4 -35 -14 -77 -21 -43 -7
-91 -15 -108 -18 -16 -3 -26 -2 -22 3 8 8 155 42 190 43 9 1 17 -3 17 -7z
m-595 -157 c23 -66 57 -156 75 -200 18 -44 52 -138 76 -209 25 -70 52 -142 60
-160 33 -63 91 -110 159 -127 l30 -7 -33 -1 c-65 -2 -149 62 -190 144 -55 111
-260 622 -276 689 l-7 28 32 -18 c27 -16 37 -36 74 -139z m-344 108 l40 -38
-36 -80 c-39 -83 -148 -359 -181 -455 -16 -46 -23 -55 -44 -55 -21 0 -25 -5
-25 -27 1 -30 -13 -36 -33 -16 -21 21 -13 53 62 245 73 187 126 340 146 421 6
23 15 42 21 42 5 0 28 -17 50 -37z m926 1 c-7 -8 -144 -34 -176 -34 -42 0 -16
10 60 24 83 15 125 19 116 10z m1776 -77 c40 -49 67 -99 67 -123 0 -10 -13 10
-30 42 -16 33 -53 84 -82 114 -38 38 -44 47 -21 31 18 -12 48 -41 66 -64z
m-1753 34 c-18 -10 -170 -32 -214 -30 -28 1 162 35 209 37 16 1 17 0 5 -7z
m1412 -61 c41 -70 46 -90 23 -90 -14 0 -95 126 -95 149 0 31 38 0 72 -59z
m-1360 28 c-8 -8 -9 -4 -5 13 4 13 8 18 11 10 2 -7 -1 -18 -6 -23z m1503 13
c22 -11 53 -31 69 -46 36 -35 87 -115 80 -126 -9 -16 -19 -10 -38 24 -10 17
-33 47 -49 65 -20 21 -26 32 -16 32 7 1 1 8 -16 17 -16 9 -60 18 -97 21 -44 3
-69 9 -72 18 -8 22 90 18 139 -5z m-2372 -53 c84 -104 144 -233 173 -375 18
-87 15 -279 -5 -328 l-12 -29 -20 31 c-16 25 -21 53 -24 125 -5 154 -71 349
-145 428 -16 18 -30 38 -30 46 0 22 -22 64 -31 58 -5 -2 -2 17 6 43 8 26 15
52 15 56 0 16 40 -14 73 -55z m1280 55 c-7 -2 -19 -2 -25 0 -7 3 -2 5 12 5 14
0 19 -2 13 -5z m1292 -143 c24 -46 3 -35 -24 12 -13 22 -41 62 -63 87 -26 29
-20 24 16 -12 31 -32 63 -71 71 -87z m-1782 120 c-12 -5 -57 -11 -100 -14
l-78 -5 80 13 c44 7 89 14 100 14 18 1 18 0 -2 -8z m1345 -63 c40 -59 53 -97
33 -97 -16 0 -120 154 -108 162 18 11 31 0 75 -65z m-2493 42 c25 -6 50 -18
57 -27 11 -13 9 -14 -17 -8 -75 19 -137 24 -210 15 -75 -8 -168 -24 -207 -35
-10 -3 -18 -1 -18 5 0 11 72 35 151 50 64 13 193 13 244 0z m1635 1 c-36 -11
-50 -11 -50 0 0 6 17 10 38 9 33 -1 34 -2 12 -9z m706 -71 c-30 -45 -57 -86
-59 -92 -2 -7 -8 -8 -13 -4 -10 10 31 87 74 138 56 66 55 43 -2 -42z m-1116
67 c0 -3 -4 -8 -10 -11 -5 -3 -10 -1 -10 4 0 6 5 11 10 11 6 0 10 -2 10 -4z
m-105 -16 c-64 -12 -180 -22 -173 -14 9 8 109 21 168 22 l45 0 -40 -8z m-202
-17 c-7 -2 -19 -2 -25 0 -7 3 -2 5 12 5 14 0 19 -2 13 -5z m735 0 c-15 -2 -42
-2 -60 0 -18 2 -6 4 27 4 33 0 48 -2 33 -4z m-573 -23 c-27 -5 -68 -8 -90 -8
l-40 1 35 7 c19 4 60 7 90 7 l55 0 -50 -7z m603 -15 c-11 -9 -128 -15 -128 -6
0 6 26 11 58 13 52 3 78 0 70 -7z m1005 4 c12 -7 44 -26 70 -43 l49 -31 -29
-6 c-15 -4 -68 -9 -117 -11 l-89 -5 36 31 c23 19 37 40 37 54 0 25 11 27 43
11z m-1760 -6 c-7 -2 -21 -2 -30 0 -10 3 -4 5 12 5 17 0 24 -2 18 -5z m387
-17 c0 -2 -11 -1 -25 2 -14 2 -22 8 -19 13 4 8 44 -6 44 -15z m-247 7 c-7 -2
-19 -2 -25 0 -7 3 -2 5 12 5 14 0 19 -2 13 -5z m-60 -10 c-7 -2 -21 -2 -30 0
-10 3 -4 5 12 5 17 0 24 -2 18 -5z m-1024 -24 c17 -6 31 -17 31 -24 0 -11 -6
-12 -31 -3 -46 16 -167 5 -214 -19 -22 -12 -62 -41 -89 -64 -48 -42 -49 -43
-31 -12 24 42 104 102 157 118 53 17 135 19 177 4z m271 -46 c5 -47 25 -68 33
-36 4 15 5 14 6 -4 1 -31 -14 -37 -44 -17 -25 17 -31 45 -19 92 9 32 17 19 24
-35z m1109 12 c25 -15 58 -33 75 -40 24 -11 27 -15 15 -20 -10 -4 -41 9 -80
34 -41 26 -76 41 -96 41 -30 0 -41 9 -27 22 10 10 69 -9 113 -37z m316 35 c-3
-5 -35 -10 -71 -10 -36 0 -64 4 -64 10 0 6 30 10 71 10 44 0 68 -4 64 -10z
m-2169 -45 c-124 -162 -175 -478 -110 -678 37 -116 133 -265 207 -321 19 -14
58 -40 88 -57 71 -40 26 -28 -78 21 -286 134 -420 523 -307 885 14 44 37 100
53 125 27 44 29 45 102 56 41 6 75 12 76 13 2 0 -12 -19 -31 -44z m1649 -6 c5
-5 -2 -9 -19 -9 -101 0 -162 -111 -122 -222 19 -52 3 -48 -23 5 -41 84 -20
178 50 225 26 18 42 22 69 17 19 -4 39 -11 45 -16z m-373 -11 c-19 -19 -15
-37 48 -215 47 -133 66 -174 90 -196 l31 -28 177 7 c127 4 181 10 191 20 12
11 9 13 -25 8 -34 -4 -36 -3 -17 7 22 12 56 7 83 -11 13 -9 11 -14 -12 -34
-24 -21 -40 -25 -155 -32 -208 -12 -245 -11 -278 10 -47 28 -69 68 -130 239
-62 174 -66 214 -25 234 28 14 40 9 22 -9z m945 -10 c14 -13 30 -32 36 -43 11
-21 27 -95 20 -95 -2 0 -13 21 -25 48 -31 72 -54 92 -104 92 -31 0 -51 -7 -73
-26 -20 -16 -31 -21 -31 -12 0 7 -3 23 -6 35 -5 18 -1 22 23 26 61 11 135 -1
160 -25z m723 14 c0 -8 -215 -44 -345 -58 -118 -13 -42 10 122 36 184 30 223
34 223 22z m700 -33 c95 -44 114 -69 68 -89 -13 -5 -167 -26 -343 -45 -176
-19 -428 -53 -560 -74 -132 -22 -294 -47 -360 -55 -66 -9 -130 -19 -143 -21
l-22 -5 20 37 c11 21 23 52 26 69 5 28 11 33 52 42 26 6 79 22 118 36 74 27
198 45 723 106 146 17 267 33 270 35 14 14 70 0 151 -36z m-1860 -18 c0 -27
-24 -60 -36 -48 -3 3 -2 21 1 41 9 44 35 49 35 7z m419 -10 c26 -36 26 -41 2
-41 -28 0 -63 -49 -56 -77 8 -33 -13 -29 -52 9 -42 41 -42 68 2 107 45 39 77
40 104 2z m-1976 -35 c-15 -18 -37 -33 -48 -33 -11 0 -29 -4 -40 -8 -18 -8
-19 -7 -5 10 22 27 114 84 118 74 2 -5 -9 -24 -25 -43z m182 44 c3 -5 1 -10
-4 -10 -6 0 -11 5 -11 10 0 6 2 10 4 10 3 0 8 -4 11 -10z m1399 -47 c-29 -31
-30 -40 -6 -47 11 -4 30 -18 43 -33 l24 -27 -25 17 c-14 10 -42 26 -62 35 -42
19 -49 32 -17 32 14 0 25 11 35 37 11 25 18 32 24 24 4 -8 -2 -23 -16 -38z
m156 5 c0 -16 -3 -19 -11 -11 -6 6 -8 16 -5 22 11 17 16 13 16 -11z m-1530 2
c11 -7 8 -10 -16 -10 -37 0 -113 -47 -143 -88 -33 -47 -51 -108 -51 -174 0
-132 85 -223 188 -203 20 4 30 10 22 12 -49 16 -98 46 -112 71 -47 80 -38 185
22 247 31 32 70 52 70 35 0 -4 -16 -17 -35 -29 -70 -41 -97 -156 -52 -222 24
-35 68 -64 77 -50 3 5 15 11 26 15 26 8 46 30 73 81 27 52 27 25 0 -32 -12
-24 -33 -50 -47 -58 -19 -10 -22 -14 -10 -15 10 0 33 14 52 30 34 30 63 96 84
195 l9 40 12 -30 c8 -18 11 -61 9 -105 -3 -66 -7 -82 -37 -129 -80 -125 -218
-149 -316 -55 -16 16 -33 28 -37 27 -14 -5 -41 86 -45 152 -6 86 19 160 74
225 55 64 141 97 183 70z m343 -58 c113 -251 -2 -621 -231 -745 -64 -34 -156
-53 -202 -39 l-35 10 41 1 c66 2 168 38 223 79 87 66 150 161 197 297 23 67
28 97 28 180 -1 85 -5 111 -28 170 -37 95 -40 105 -29 105 6 0 22 -26 36 -58z
m935 47 c-2 -5 -33 -20 -70 -33 -57 -19 -65 -20 -58 -6 15 28 34 38 75 43 22
2 44 4 48 5 5 1 7 -3 5 -9z m-985 -98 c1 -16 -4 -26 -14 -29 -23 -4 -30 20
-22 76 l6 47 15 -35 c7 -19 15 -46 15 -59z m1252 33 c15 -37 20 -129 9 -158
-8 -22 -58 -20 -157 5 -91 23 -124 38 -151 68 -23 25 -53 27 -78 4 -17 -15
-18 -15 -18 0 0 19 48 46 70 39 8 -2 31 -19 50 -38 28 -26 52 -37 123 -54 117
-27 135 -26 143 5 6 25 1 89 -11 138 -10 39 2 33 20 -9z m266 20 c20 -24 -1
-49 -42 -49 -39 0 -50 23 -24 49 21 20 49 21 66 0z m-2176 -11 c-46 -121 -58
-284 -29 -384 64 -215 217 -325 386 -279 100 28 211 149 250 273 13 41 28 72
34 70 6 -2 15 6 19 19 6 20 8 21 12 5 7 -28 -33 -146 -72 -212 -51 -84 -99
-131 -175 -168 -55 -27 -75 -32 -140 -32 -64 0 -83 4 -128 30 -144 79 -244
286 -228 468 7 75 53 227 68 227 6 0 7 -8 3 -17z m1693 -17 c86 -44 94 -78 17
-72 -33 3 -54 12 -80 35 -37 32 -63 38 -96 21 -10 -6 -19 -8 -19 -5 0 10 84
45 108 45 12 0 44 -11 70 -24z m-1598 -8 c0 -2 -11 -25 -25 -52 -14 -27 -25
-55 -25 -63 0 -15 -2 -15 -24 -7 -21 8 -20 44 1 89 13 28 22 35 45 35 15 0 28
-1 28 -2z m1990 -52 c47 7 100 13 118 13 l32 1 -20 -40 c-28 -55 -59 -72 -139
-78 l-69 -5 -21 41 c-12 23 -21 53 -21 68 0 26 0 26 18 6 16 -19 21 -19 102
-6z m1363 -43 c-37 -250 -241 -442 -473 -446 -76 -1 -136 22 -207 80 l-47 38
24 -35 c13 -19 42 -51 63 -72 49 -47 37 -49 -25 -3 -60 44 -123 123 -159 200
l-29 59 23 13 c28 15 57 16 57 2 0 -22 90 -147 125 -173 65 -50 124 -70 205
-70 66 -1 85 4 145 33 129 63 237 205 267 352 14 66 41 85 31 22z m-2836 -83
c4 -49 3 -70 -6 -70 -7 0 -11 19 -11 48 0 26 -3 65 -6 87 -4 32 -3 37 6 22 6
-9 14 -49 17 -87z m81 22 c2 -58 0 -72 -12 -72 -11 0 -15 17 -18 71 -2 39 -1
73 1 75 16 15 26 -12 29 -74z m1154 72 c21 -4 35 -11 32 -15 -3 -5 -10 -7 -15
-3 -6 3 -31 9 -57 14 -26 4 -36 8 -22 9 14 0 42 -2 62 -5z m1503 -41 c-13 -69
-45 -138 -92 -195 -25 -32 -49 -56 -51 -53 -3 3 3 14 13 25 9 10 15 26 12 34
-4 9 -1 18 5 22 7 4 8 3 4 -4 -4 -7 -4 -12 -1 -12 11 0 75 144 81 183 4 23 12
37 21 37 12 0 14 -8 8 -37z m-115 9 c0 -15 -41 -52 -63 -57 -50 -10 -169 -25
-205 -25 -36 0 -95 31 -82 43 6 5 279 44 323 46 15 0 27 -3 27 -7z m-1695 -72
c3 -5 18 -10 33 -10 24 -1 25 -2 9 -11 -20 -12 -103 -4 -112 11 -3 5 7 11 22
13 16 2 31 5 35 6 4 0 10 -3 13 -9z m1255 -127 c0 -4 12 -20 27 -35 15 -15 22
-28 16 -28 -17 0 -70 66 -98 120 -38 75 -30 81 15 11 22 -34 40 -65 40 -68z
m387 80 c-28 -54 -95 -119 -150 -146 -57 -28 -128 -36 -157 -17 -17 11 -11 14
65 30 81 18 128 44 191 106 32 33 60 59 62 58 2 -1 -3 -15 -11 -31z m-3133
-20 c3 -21 9 -53 12 -71 7 -34 -8 -62 -31 -62 -22 0 -40 80 -36 153 1 11 9 17
25 17 19 0 24 -7 30 -37z m2122 10 c-4 -4 -63 -17 -132 -29 -69 -12 -121 -17
-116 -12 5 5 58 18 118 28 127 21 140 22 130 13z m-303 -38 c-3 -8 -11 -15
-19 -15 -12 0 -12 4 -2 19 13 22 30 18 21 -4z m467 -65 c29 -57 144 -176 214
-222 72 -46 65 -49 -16 -6 -72 38 -158 129 -198 209 -17 32 -28 59 -25 59 2 0
14 -18 25 -40z m859 -6 c-30 -34 -99 -84 -113 -84 -6 0 12 15 39 34 28 18 59
43 69 55 11 11 21 21 24 21 3 0 -5 -12 -19 -26z m-2985 -112 c14 -14 17 -26
12 -60 -8 -59 -11 -63 -48 -50 -39 14 -128 100 -128 124 0 15 9 16 73 9 45 -4
79 -13 91 -23z m272 -31 c-61 -63 -184 -121 -215 -101 -8 4 -9 19 -3 46 l8 39
54 1 c55 1 155 28 165 45 4 5 11 9 18 9 6 0 -6 -18 -27 -39z"/>
<path d="M2801 4484 c-17 -26 -31 -55 -31 -63 0 -8 16 11 35 44 43 70 39 87
-4 19z"/>
<path d="M2820 4465 c-7 -9 -10 -18 -7 -22 8 -7 37 15 37 28 0 14 -16 11 -30
-6z"/>
<path d="M3054 4195 c-8 -20 3 -48 18 -43 6 2 16 12 22 21 8 13 7 20 -4 27
-21 14 -30 12 -36 -5z"/>
<path d="M3144 3726 c-8 -32 1 -46 30 -46 37 0 86 -21 86 -36 0 -8 -7 -31 -15
-50 -12 -30 -19 -35 -37 -31 -63 15 -98 18 -98 9 0 -5 27 -15 61 -21 73 -15
88 -6 125 73 34 73 9 102 -103 121 -39 6 -43 5 -49 -19z m87 -7 c78 -26 64
-45 -20 -28 -37 8 -61 18 -61 26 0 16 36 17 81 2z"/>
<path d="M3020 3400 c-12 -8 -9 -10 12 -10 14 0 54 -9 87 -19 61 -19 73 -13
23 13 -38 19 -104 28 -122 16z"/>
<path d="M2996 3341 c17 -11 46 -45 64 -76 18 -31 34 -55 36 -53 8 9 -20 86
-42 116 -19 24 -33 32 -57 32 l-32 0 31 -19z"/>
<path d="M2855 3275 c-36 -35 -31 -52 6 -21 34 29 40 30 87 17 40 -12 41 -6 2
14 -41 21 -67 19 -95 -10z"/>
<path d="M2738 3073 c7 -3 16 -2 19 1 4 3 -2 6 -13 5 -11 0 -14 -3 -6 -6z"/>
<path d="M3897 3820 c7 -8 70 -15 160 -20 81 -5 157 -12 168 -16 18 -6 18 -5
-3 17 -22 23 -29 24 -180 27 -120 3 -154 1 -145 -8z"/>
<path d="M2492 2320 c0 -19 2 -27 5 -17 2 9 2 25 0 35 -3 9 -5 1 -5 -18z"/>
<path d="M2045 2655 c-28 -27 -30 -38 -14 -84 20 -56 98 -62 115 -9 7 22 7 22
15 3 l8 -20 1 20 c5 46 -3 71 -26 93 -33 29 -69 28 -99 -3z m75 -6 c12 -8 10
-9 -8 -4 -14 4 -33 0 -50 -11 l-27 -17 19 21 c21 24 43 28 66 11z m-7 -48 c-6
-3 -13 -13 -16 -21 -4 -11 -6 -9 -6 6 -1 24 8 36 21 27 7 -3 7 -8 1 -12z"/>
<path d="M4085 2335 c22 -20 58 -50 80 -67 39 -31 39 -31 -8 18 -26 27 -62 58
-80 68 -31 17 -30 16 8 -19z"/>
<path d="M4077 2185 c68 -31 129 -89 209 -197 67 -92 92 -115 53 -50 -79 131
-168 226 -242 257 -59 24 -77 16 -20 -10z"/>
<path d="M1740 2363 c-15 -20 -20 -37 -17 -58 6 -38 163 -445 176 -458 22 -22
20 2 -2 54 -13 30 -54 136 -92 237 l-69 182 17 35 c20 42 16 44 -13 8z"/>
<path d="M3217 2093 c16 -16 53 -63 82 -106 62 -89 80 -96 28 -10 -63 103 -96
143 -118 143 -20 0 -19 -2 8 -27z"/>
<path d="M3201 1985 c0 -5 11 -30 24 -55 13 -25 24 -40 24 -35 0 6 -11 30 -24
55 -13 25 -24 41 -24 35z"/>
<path d="M3275 2284 c-22 -8 -78 -25 -125 -37 -51 -13 -76 -23 -62 -25 26 -4
190 41 230 63 35 18 9 18 -43 -1z"/>
<path d="M4575 1665 c-44 -7 -64 -12 -45 -13 19 0 73 5 120 12 50 8 69 13 45
13 -22 0 -76 -5 -120 -12z"/>
<path d="M4270 1074 c-177 -17 -201 -24 -65 -18 136 7 339 31 255 31 -30 0
-116 -6 -190 -13z"/>
<path d="M4218 943 c7 -3 16 -2 19 1 4 3 -2 6 -13 5 -11 0 -14 -3 -6 -6z"/>
<path d="M3945 924 c-299 -29 -722 -76 -760 -84 -64 -14 72 -3 425 36 530 57
567 61 520 62 -25 0 -108 -6 -185 -14z"/>
<path d="M2563 823 c9 -2 23 -2 30 0 6 3 -1 5 -18 5 -16 0 -22 -2 -12 -5z"/>
<path d="M2190 794 c-263 -26 -494 -56 -375 -49 102 7 600 54 670 64 l60 9
-60 -1 c-33 0 -166 -10 -295 -23z"/>
</g>
</svg>