<svg id="visual" viewBox="0 0 900 600" width="900" height="600" xmlns="http://www.w3.org/2000/svg" xmlns:xlink="http://www.w3.org/1999/xlink" version="1.1"><rect x="0" y="0" width="900" height="600" fill="#001220"></rect><defs><linearGradient id="grad1_0" x1="33.3%" y1="0%" x2="100%" y2="100%"><stop offset="20%" stop-color="#001220" stop-opacity="1"></stop><stop offset="80%" stop-color="#001220" stop-opacity="1"></stop></linearGradient></defs><defs><linearGradient id="grad2_0" x1="0%" y1="0%" x2="66.7%" y2="100%"><stop offset="20%" stop-color="#001220" stop-opacity="1"></stop><stop offset="80%" stop-color="#001220" stop-opacity="1"></stop></linearGradient></defs><g transform="translate(900, 0)"><path d="M0 297.5C-44.5 277.2 -89.1 256.9 -135.5 234.7C-181.9 212.4 -230.3 188.2 -257.6 148.7C-284.9 109.3 -291.2 54.6 -297.5 0L0 0Z" fill="#FBAE3C"></path></g><g transform="translate(0, 600)"><path d="M0 -297.5C49.9 -286.4 99.7 -275.4 145.5 -252C191.3 -228.6 233 -192.8 257.6 -148.7C282.3 -104.7 289.9 -52.3 297.5 0L0 0Z" fill="#FBAE3C"></path></g></svg>